<svg width="24" height="24" viewBox="0 0 24 24" fill="none" xmlns="http://www.w3.org/2000/svg">
<path fill-rule="evenodd" clip-rule="evenodd" d="M17.6 5.00016H6.4C6.03425 4.99455 5.68126 5.13448 5.4187 5.38917C5.15614 5.64385 5.00553 5.99242 5 6.35816V14.5002C5.00553 14.8659 5.15614 15.2145 5.4187 15.4692C5.68126 15.7238 6.03425 15.8638 6.4 15.8582H10.27C10.4881 15.857 10.7035 15.9056 10.9 16.0002L16.551 19.0002L16.5 14.5002H17.93C18.5106 14.5091 18.9891 14.0467 19 13.4662V6.35816C18.9945 5.99242 18.8439 5.64385 18.5813 5.38917C18.3187 5.13448 17.9657 4.99455 17.6 5.00016Z" stroke="white" stroke-width="1.5" stroke-linecap="round" stroke-linejoin="round"/>
<path d="M8 8.25C7.58579 8.25 7.25 8.58579 7.25 9C7.25 9.41421 7.58579 9.75 8 9.75V8.25ZM16 9.75C16.4142 9.75 16.75 9.41421 16.75 9C16.75 8.58579 16.4142 8.25 16 8.25V9.75ZM8 11.25C7.58579 11.25 7.25 11.5858 7.25 12C7.25 12.4142 7.58579 12.75 8 12.75V11.25ZM14 12.75C14.4142 12.75 14.75 12.4142 14.75 12C14.75 11.5858 14.4142 11.25 14 11.25V12.75ZM8 9.75H16V8.25H8V9.75ZM8 12.75H14V11.25H8V12.75Z" fill="white"/>
</svg>
