<svg width="90" height="90" viewBox="0 0 90 90" fill="none" xmlns="http://www.w3.org/2000/svg">
<path d="M76.5282 38.2485L70.1412 26.0172C69.6334 25.0551 68.77 24.3292 67.7349 23.9942C66.6998 23.6593 65.5748 23.7417 64.5996 24.2239L58.5535 27.2468H54.2977L45.728 23.3691C44.8243 22.9607 43.8044 22.8886 42.8522 23.1659L30.2117 26.851L24.4007 23.9455C23.4253 23.4636 22.3004 23.3814 21.2654 23.7163C20.2304 24.0512 19.3669 24.7768 18.8587 25.7387L12.4718 37.9703C12.2164 38.4595 12.061 38.9946 12.0147 39.5445C11.9683 40.0943 12.032 40.6479 12.2019 41.1729C12.3718 41.6979 12.6445 42.1838 13.0042 42.6023C13.3639 43.0208 13.8033 43.3634 14.2968 43.6103L20.5299 46.7268L34.5615 57.699C35.0197 58.0582 35.5485 58.3164 36.1135 58.4568L51.1654 62.2198C51.492 62.3014 51.8273 62.3426 52.164 62.3426C53.2685 62.3428 54.3283 61.9058 55.1118 61.1272L64.6683 51.5703C64.6785 51.5602 64.6876 51.5491 64.6975 51.5388C64.7105 51.5251 64.7232 51.5112 64.736 51.4971C64.75 51.4817 64.7648 51.4671 64.7784 51.4513L68.6602 46.9101L74.7032 43.8886C75.1967 43.6418 75.6361 43.2991 75.9958 42.8806C76.3555 42.4621 76.6283 41.9762 76.7981 41.4512C76.968 40.9262 77.0317 40.3726 76.9853 39.8227C76.939 39.2728 76.7836 38.7377 76.5282 38.2485ZM62.8677 47.2913L52.9938 40.1103C52.6345 39.8489 52.2009 39.7096 51.7566 39.7128C51.3123 39.7161 50.8807 39.8618 50.5253 40.1284L47.2011 42.6216C46.1201 43.4259 44.8086 43.8602 43.4612 43.8602C42.1138 43.8602 40.8023 43.4259 39.7212 42.6216L38.3136 41.5658L48.4771 31.4021H53.8386C53.8418 31.4021 53.845 31.4026 53.8483 31.4026L53.8554 31.4021H57.7846L64.8628 44.9573L62.8677 47.2913ZM22.5424 27.6621L27.1357 29.9588L20.7487 42.1903L16.1554 39.8937L22.5424 27.6621ZM52.1733 58.1888L37.1214 54.4258L24.2879 44.3904L31.3613 30.8441L44.0153 27.1551L46.015 28.0599C45.8465 28.1826 45.6873 28.3176 45.5388 28.4639L35.3752 38.6276C34.9542 39.0486 34.6286 39.5551 34.4205 40.1128C34.2123 40.6706 34.1265 41.2666 34.1687 41.8604C34.2109 42.4542 34.3802 43.032 34.6651 43.5547C34.9501 44.0774 35.344 44.5328 35.8203 44.89L37.2281 45.9459C39.0298 47.2863 41.2155 48.0103 43.4612 48.0103C45.7068 48.0103 47.8925 47.2863 49.6942 45.9459L51.7909 44.3734L60.0107 50.3514L52.1733 58.1888ZM72.8446 40.172L68.2512 42.4687L61.8643 30.2371L66.4576 27.9406L72.8471 40.1706L72.8446 40.172ZM42.3602 66.1877C42.2943 66.4526 42.1769 66.7019 42.0145 66.9213C41.8522 67.1407 41.6481 67.3259 41.4141 67.4663C41.18 67.6068 40.9206 67.6996 40.6506 67.7396C40.3806 67.7796 40.1054 67.7659 39.8407 67.6993L32.0131 65.7426C31.3781 65.5829 30.7894 65.2762 30.2946 64.8474L24.4379 59.7564C24.022 59.3949 23.7668 58.883 23.7283 58.3333C23.6898 57.7836 23.8713 57.2412 24.2328 56.8253C24.5942 56.4094 25.1061 56.1541 25.6558 56.1156C26.2055 56.0771 26.748 56.2586 27.1639 56.6201L33.021 61.7113L40.8486 63.6683C41.1133 63.7344 41.3624 63.8521 41.5816 64.0145C41.8008 64.1769 41.9859 64.3809 42.1263 64.6149C42.2667 64.8489 42.3596 65.1082 42.3997 65.3781C42.4398 65.6479 42.4264 65.9231 42.3602 66.1877Z" fill="black"/>
</svg>
