<svg width="90" height="90" viewBox="0 0 90 90" fill="none" xmlns="http://www.w3.org/2000/svg">
<path d="M71.25 71.25H33.75C25.4657 71.25 18.75 64.5343 18.75 56.25V18.75" stroke="black" stroke-width="5" stroke-linecap="round" stroke-linejoin="round"/>
<path d="M56.6968 27.5C55.3161 27.5 54.1968 28.6193 54.1968 30C54.1968 31.3807 55.3161 32.5 56.6968 32.5V27.5ZM71.2505 32.5C72.6313 32.5 73.7505 31.3807 73.7505 30C73.7505 28.6193 72.6313 27.5 71.2505 27.5V32.5ZM73.7505 30C73.7505 28.6193 72.6313 27.5 71.2505 27.5C69.8698 27.5 68.7505 28.6193 68.7505 30H73.7505ZM68.7505 43.5263C68.7505 44.907 69.8698 46.0263 71.2505 46.0263C72.6313 46.0263 73.7505 44.907 73.7505 43.5263H68.7505ZM73.1722 31.5991C74.0554 30.5378 73.911 28.9615 72.8496 28.0783C71.7883 27.1952 70.212 27.3396 69.3288 28.4009L73.1722 31.5991ZM56.2505 48.0263L57.9299 49.8782C58.0165 49.7997 58.0975 49.7152 58.1722 49.6253L56.2505 48.0263ZM50.3668 48.255L48.8179 50.2174C48.824 50.2222 48.8301 50.227 48.8363 50.2317L50.3668 48.255ZM46.433 45.15L47.982 43.1876C47.9778 43.1844 47.9736 43.1811 47.9694 43.1778L46.433 45.15ZM40.1255 45.8363L38.201 44.2406C38.1764 44.2703 38.1524 44.3006 38.1291 44.3315L40.1255 45.8363ZM39.6455 46.4062L41.4304 48.1568C41.4431 48.1438 41.4557 48.1307 41.4681 48.1174L39.6455 46.4062ZM27.7132 55.002C26.7464 55.9877 26.7618 57.5705 27.7475 58.5373C28.7332 59.5041 30.3161 59.4888 31.2829 58.503L27.7132 55.002ZM56.6968 32.5H71.2505V27.5H56.6968V32.5ZM68.7505 30V43.5263H73.7505V30H68.7505ZM69.3288 28.4009L54.3288 46.4272L58.1722 49.6253L73.1722 31.5991L69.3288 28.4009ZM54.5712 46.1743C53.823 46.8528 52.6959 46.8966 51.8973 46.2783L48.8363 50.2317C51.5522 52.3346 55.3855 52.1856 57.9299 49.8782L54.5712 46.1743ZM51.9157 46.2927L47.982 43.1876L44.8841 47.1124L48.8179 50.2174L51.9157 46.2927ZM47.9694 43.1778C44.961 40.8343 40.635 41.3049 38.201 44.2406L42.0501 47.4319C42.7594 46.5764 44.02 46.4393 44.8967 47.1222L47.9694 43.1778ZM38.1291 44.3315C38.0337 44.4581 37.9315 44.5795 37.823 44.6951L41.4681 48.1174C41.6999 47.8706 41.9181 47.6114 42.1219 47.341L38.1291 44.3315ZM37.8607 44.6557L27.7132 55.002L31.2829 58.503L41.4304 48.1568L37.8607 44.6557Z" fill="black"/>
</svg>
