<svg width="40" height="40" viewBox="0 0 40 40" fill="none" xmlns="http://www.w3.org/2000/svg">
<path d="M10.2852 35.8571H32.9994M29.5709 32.6428L23.7852 23.4285M23.7852 23.4285L16.4994 21.0714M23.7852 23.4285L22.0709 32.6428M16.4994 21.0714L11.5709 16.1428V9.28564M16.4994 21.0714L13.2852 32.6428" stroke="black" stroke-width="2" stroke-linecap="round"/>
<path d="M7.40253 6.98272L5.67687 12.027C5.39333 12.8558 4.25677 12.9453 3.84692 12.1712L3.2034 10.9556C3.07366 10.7106 3.0515 10.4227 3.1422 10.1606L4.59017 5.97761C4.77518 5.44314 5.36625 5.16834 5.89413 5.37137L6.81534 5.72568C7.31718 5.9187 7.57657 6.47399 7.40253 6.98272Z" fill="black"/>
<path d="M10.1061 12.3477C10.6137 12.5653 11.2016 12.3301 11.4191 11.8225C11.6367 11.3149 11.4015 10.727 10.8939 10.5094L10.1061 12.3477ZM5.60608 10.4191L10.1061 12.3477L10.8939 10.5094L6.39392 8.58085L5.60608 10.4191Z" fill="black"/>
<circle cx="21.8577" cy="14" r="4.14286" stroke="black" stroke-width="2"/>
</svg>
