<svg width="40" height="40" viewBox="0 0 40 40" fill="none" xmlns="http://www.w3.org/2000/svg">
<path d="M20 20.0001H15C12.3478 20.0001 9.8043 18.9465 7.92893 17.0711C6.05357 15.1958 5 12.6522 5 10.0001V6.66675H10C12.6522 6.66675 15.1957 7.72032 17.0711 9.59568C18.9464 11.471 20 14.0146 20 16.6667V33.3334M20 23.3334C20 20.6812 21.0536 18.1377 22.9289 16.2623C24.8043 14.387 27.3478 13.3334 30 13.3334H35V15.0001C35 17.6522 33.9464 20.1958 32.0711 22.0711C30.1957 23.9465 27.6522 25.0001 25 25.0001H20" stroke="black" stroke-width="2" stroke-linecap="round" stroke-linejoin="round"/>
</svg>
