<svg width="40" height="40" viewBox="0 0 40 40" fill="none" xmlns="http://www.w3.org/2000/svg">
<path d="M6.66797 13.3334H33.3346M33.3346 20.0001H6.66797M6.66797 26.6667H33.3346M15.0013 6.66675V13.3334M23.3346 13.3334V20.0001M13.3346 20.0001V26.6667M26.668 20.0001V26.6667M18.3346 26.6667V33.3334M6.66797 10.0001C6.66797 9.11603 7.01916 8.26818 7.64428 7.64306C8.2694 7.01794 9.11725 6.66675 10.0013 6.66675H30.0013C30.8854 6.66675 31.7332 7.01794 32.3583 7.64306C32.9834 8.26818 33.3346 9.11603 33.3346 10.0001V30.0001C33.3346 30.8841 32.9834 31.732 32.3583 32.3571C31.7332 32.9822 30.8854 33.3334 30.0013 33.3334H10.0013C9.11725 33.3334 8.2694 32.9822 7.64428 32.3571C7.01916 31.732 6.66797 30.8841 6.66797 30.0001V10.0001Z" stroke="black" stroke-width="2" stroke-linecap="round" stroke-linejoin="round"/>
</svg>
