<svg width="40" height="40" viewBox="0 0 40 40" fill="none" xmlns="http://www.w3.org/2000/svg">
<path d="M14.7119 22.8414L16.0478 21.5648L8.54406 14.0237C7.71391 13.1936 7.72563 12.3725 8.53141 11.555L10.2871 9.78761C11.0854 8.97972 11.9298 8.98934 12.7579 9.80778L20.7792 17.8216L22.0776 16.5128L14.1845 8.56957C12.4499 6.84458 10.593 6.83614 8.90735 8.52176L7.25595 10.1774C5.57033 11.863 5.57665 13.7136 7.30376 15.4407L14.7119 22.8414ZM14.2223 17.7131C14.4318 17.9226 14.7679 17.9184 14.9657 17.7152C15.1677 17.5174 15.1773 17.1909 14.9678 16.9813L10.6905 12.6997C10.5044 12.5211 10.1629 12.5061 9.95336 12.6976C9.75134 12.9146 9.73962 13.255 9.94915 13.457L14.2223 17.7131ZM15.7016 16.2433C15.9016 16.4528 16.259 16.4294 16.4451 16.2454C16.6567 16.0188 16.6588 15.6901 16.4589 15.4881L12.1794 11.2204C11.9741 11.015 11.6444 11.0247 11.4541 11.2182C11.2403 11.4236 11.2499 11.7564 11.4477 11.9563L15.7016 16.2433ZM30.6761 34.1587L32.9045 31.9303C33.1907 31.6345 33.1598 31.2004 32.898 30.7971L30.4298 27.1049C30.1647 26.7121 29.7559 26.4374 29.3024 26.3704L28.2731 26.2085L22.8911 20.8286L21.6198 22.2513L27.4752 28.0832L28.7877 28.3038L30.948 31.1833L29.9153 32.216L27.0496 30.0515L26.8174 28.7411L21.0121 22.9284L19.7334 24.3393L24.9426 29.5389L25.1046 30.5662C25.1695 31.0218 25.458 31.4327 25.837 31.6839L29.545 34.1852C29.958 34.4545 30.3782 34.4587 30.6761 34.1587Z" fill="black"/>
<path d="M8.0149 32.7421C10.0961 34.7999 12.9025 34.7875 14.917 32.7613C17.4572 30.1999 17.3955 26.8818 25.2619 19.1456L24.0377 17.9139C15.3391 26.6414 16.3474 28.6284 13.5614 31.4165C12.3302 32.6552 10.661 32.6964 9.34802 31.4069C8.04676 30.0822 8.09973 28.4247 9.31919 27.1956C12.1265 24.4 14.1114 25.4137 22.8293 16.7151L21.6094 15.491C13.8246 23.4058 10.5529 23.2956 7.99146 25.8262C5.95568 27.8406 5.94326 30.6567 8.0149 32.7421ZM11.4222 30.7523C12.1917 30.7523 12.8205 30.1213 12.8205 29.354C12.8205 28.5867 12.1917 27.9632 11.4222 27.9632C10.6549 27.9632 10.0314 28.5867 10.0314 29.354C10.0314 30.1213 10.6549 30.7523 11.4222 30.7523ZM22.4981 18.2493C25.2176 20.9709 29.5603 21.0688 32.1935 18.4431C34.3725 16.2663 34.7147 12.8053 33.0136 10.0594L31.6934 11.3892C32.7009 13.3542 32.3981 15.6684 30.9084 17.1677C28.9934 19.0828 25.8155 18.989 23.7832 16.9738C21.7563 14.9491 21.6764 11.7541 23.6011 9.84863C25.0908 8.35683 27.4317 8.05402 29.3466 9.0712L30.6764 7.74137C27.9497 6.052 24.5004 6.38458 22.3235 8.57106C19.6978 11.1872 19.7841 15.5278 22.4981 18.2493ZM26.0953 12.9686L27.8044 14.6618C28.68 15.5353 29.8059 15.5587 30.6347 14.7204L33.1547 12.1929L32.0222 11.07L29.7945 13.2764C29.4949 13.5738 29.1408 13.5909 28.8241 13.2785L27.4999 11.9489C27.1791 11.6184 27.1523 11.2525 27.4498 10.9509L29.6946 8.72316L28.5354 7.59278L26.0346 10.1032C25.1653 10.965 25.1887 12.0834 26.0953 12.9686Z" fill="black"/>
</svg>
