<svg width="40" height="40" viewBox="0 0 40 40" fill="none" xmlns="http://www.w3.org/2000/svg">
<path d="M16.6675 16.6666L27.5008 27.4999M24.0342 15.0966L15.0975 24.0349C14.7002 24.4322 14.2079 24.7214 13.6674 24.8749C13.1269 25.0284 12.5561 25.0413 12.0092 24.9122C11.4624 24.7831 10.9576 24.5164 10.5428 24.1374C10.128 23.7584 9.81693 23.2796 9.63918 22.7466L5.16918 9.33991C4.97557 8.7591 4.94753 8.13584 5.08819 7.53999C5.22885 6.94413 5.53266 6.39922 5.96557 5.9663C6.39849 5.53339 6.9434 5.22958 7.53926 5.08892C8.13511 4.94826 8.75837 4.9763 9.33918 5.16991L22.7475 9.63991C23.2802 9.81779 23.7587 10.1288 24.1374 10.5435C24.5162 10.9582 24.7828 11.4627 24.9118 12.0093C25.0409 12.5559 25.0282 13.1264 24.8748 13.6667C24.7215 14.207 24.4311 14.6992 24.0342 15.0966ZM32.2458 27.6249L34.0458 29.4233C34.6585 30.0361 35.0026 30.8673 35.0024 31.7338C35.0023 32.6004 34.6579 33.4314 34.045 34.0441C33.4321 34.6567 32.601 35.0008 31.7344 35.0007C30.8678 35.0005 30.0368 34.6561 29.4242 34.0433L27.6242 32.2449C27.0115 31.6321 26.6674 30.8009 26.6676 29.9343C26.6677 29.0678 27.0121 28.2367 27.625 27.6241C28.2379 27.0114 29.069 26.6673 29.9356 26.6675C30.8022 26.6677 31.6332 27.0121 32.2458 27.6249Z" stroke="black" stroke-width="2" stroke-linecap="round" stroke-linejoin="round"/>
</svg>
