<svg width="90" height="90" viewBox="0 0 90 90" fill="none" xmlns="http://www.w3.org/2000/svg">
<path fill-rule="evenodd" clip-rule="evenodd" d="M50.7294 67.6054C50.8119 69.3927 49.4255 70.9102 47.6278 71.0003H41.376C39.5783 70.9102 38.1919 69.3927 38.2745 67.6054V61.0126C29.4601 57.7976 24.4588 48.5372 26.6337 39.4586C28.8086 30.38 37.472 24.3537 46.7981 25.4322C56.1243 26.5107 63.1644 34.353 63.1843 43.6854C63.1595 51.5052 58.164 58.4549 50.7294 61.0126V67.6054Z" stroke="black" stroke-width="5" stroke-linecap="round" stroke-linejoin="round"/>
<path d="M50.7293 63.5124C52.11 63.5124 53.2293 62.3931 53.2293 61.0124C53.2293 59.6317 52.11 58.5124 50.7293 58.5124V63.5124ZM38.2707 58.5124C36.89 58.5124 35.7707 59.6317 35.7707 61.0124C35.7707 62.3931 36.89 63.5124 38.2707 63.5124V58.5124ZM80 46.1853C81.3807 46.1853 82.5 45.066 82.5 43.6853C82.5 42.3046 81.3807 41.1853 80 41.1853V46.1853ZM72.5263 41.1853C71.1456 41.1853 70.0263 42.3046 70.0263 43.6853C70.0263 45.066 71.1456 46.1853 72.5263 46.1853V41.1853ZM16.4737 46.1853C17.8544 46.1853 18.9737 45.066 18.9737 43.6853C18.9737 42.3046 17.8544 41.1853 16.4737 41.1853V46.1853ZM9 41.1853C7.61929 41.1853 6.5 42.3046 6.5 43.6853C6.5 45.066 7.61929 46.1853 9 46.1853V41.1853ZM71.3552 20.7843C72.3406 19.8173 72.3555 18.2344 71.3884 17.249C70.4214 16.2635 68.8385 16.2486 67.8531 17.2157L71.3552 20.7843ZM62.5542 22.4157C61.5688 23.3828 61.5539 24.9656 62.5209 25.9511C63.488 26.9365 65.0709 26.9514 66.0563 25.9843L62.5542 22.4157ZM26.4483 64.9559C27.4324 63.9875 27.4451 62.4046 26.4766 61.4205C25.5081 60.4364 23.9253 60.4238 22.9412 61.3922L26.4483 64.9559ZM17.6573 66.5922C16.6732 67.5607 16.6605 69.1436 17.629 70.1277C18.5975 71.1117 20.1803 71.1244 21.1644 70.1559L17.6573 66.5922ZM67.8617 70.1559C68.8458 71.1244 70.4287 71.1117 71.3972 70.1277C72.3656 69.1436 72.353 67.5607 71.3689 66.5922L67.8617 70.1559ZM66.085 61.3922C65.1009 60.4238 63.518 60.4364 62.5496 61.4205C61.5811 62.4046 61.5938 63.9875 62.5779 64.9559L66.085 61.3922ZM22.9437 25.9843C23.9291 26.9514 25.512 26.9365 26.4791 25.9511C27.4461 24.9656 27.4312 23.3828 26.4458 22.4157L22.9437 25.9843ZM21.1469 17.2157C20.1615 16.2486 18.5786 16.2635 17.6116 17.249C16.6445 18.2344 16.6594 19.8173 17.6448 20.7843L21.1469 17.2157ZM50.7293 58.5124H38.2707V63.5124H50.7293V58.5124ZM80 41.1853H72.5263V46.1853H80V41.1853ZM16.4737 41.1853H9V46.1853H16.4737V41.1853ZM67.8531 17.2157L62.5542 22.4157L66.0563 25.9843L71.3552 20.7843L67.8531 17.2157ZM22.9412 61.3922L17.6573 66.5922L21.1644 70.1559L26.4483 64.9559L22.9412 61.3922ZM71.3689 66.5922L66.085 61.3922L62.5779 64.9559L67.8617 70.1559L71.3689 66.5922ZM26.4458 22.4157L21.1469 17.2157L17.6448 20.7843L22.9437 25.9843L26.4458 22.4157Z" fill="black"/>
</svg>
