<svg width="90" height="90" viewBox="0 0 90 90" fill="none" xmlns="http://www.w3.org/2000/svg">
<path d="M27.2787 41.5004C27.8541 42.7555 29.338 43.3065 30.5931 42.7312C31.8482 42.1558 32.3992 40.6719 31.8238 39.4167L27.2787 41.5004ZM22.1075 35.7424L22.0748 38.2422C22.0909 38.2424 22.107 38.2424 22.1231 38.2423L22.1075 35.7424ZM14 43.5594L11.5002 43.5253C11.5001 43.5367 11.5 43.548 11.5 43.5594H14ZM14 59.2008H11.5C11.5 59.2142 11.5001 59.2275 11.5003 59.2408L14 59.2008ZM22.1075 66.9993L22.127 64.4993C22.1096 64.4992 22.0921 64.4992 22.0747 64.4995L22.1075 66.9993ZM32.187 62.4078C32.6394 61.1033 31.9486 59.679 30.6441 59.2266C29.3396 58.7742 27.9154 59.465 27.463 60.7695L32.187 62.4078ZM31.8316 39.4338C31.2656 38.1744 29.7859 37.6123 28.5265 38.1782C27.2671 38.7442 26.705 40.2239 27.2709 41.4833L31.8316 39.4338ZM30.215 43.5594L27.715 43.557V43.5594H30.215ZM30.215 59.2008H27.715C27.715 59.2066 27.715 59.2125 27.7151 59.2183L30.215 59.2008ZM27.4642 60.8253C27.0344 62.1375 27.7497 63.5495 29.0619 63.9793C30.374 64.409 31.7861 63.6937 32.2158 62.3816L27.4642 60.8253ZM27.3175 39.336C26.6975 40.5696 27.1949 42.0724 28.4286 42.6924C29.6623 43.3124 31.165 42.8149 31.785 41.5813L27.3175 39.336ZM32.2062 37.2315L30.7396 35.2069C30.7169 35.2234 30.6945 35.2402 30.6724 35.2574L32.2062 37.2315ZM33.6237 35.2411L36.018 35.9605C36.027 35.9305 36.0355 35.9003 36.0434 35.87L33.6237 35.2411ZM37.6775 19.6442L35.2789 18.9394C35.2715 18.9646 35.2645 18.9899 35.2579 19.0153L37.6775 19.6442ZM45.6238 15.2251L44.9768 17.6399C44.9957 17.645 45.0147 17.6499 45.0337 17.6545L45.6238 15.2251ZM49.5387 18.0988L47.3943 19.3839V19.3839L49.5387 18.0988ZM50.21 22.8787L52.6185 23.5488C52.6207 23.541 52.6228 23.5332 52.6249 23.5253L50.21 22.8787ZM47.8925 31.2082L45.484 30.5381C45.4804 30.5508 45.477 30.5635 45.4737 30.5763L47.8925 31.2082ZM48.4733 33.9434L46.5176 35.5007V35.5007L48.4733 33.9434ZM51.0238 35.1408V32.6408C51.0091 32.6408 50.9945 32.641 50.9799 32.6412L51.0238 35.1408ZM64.2687 35.1408V37.6408C64.2801 37.6408 64.2915 37.6407 64.3028 37.6406L64.2687 35.1408ZM71.097 37.8344L72.832 36.0345V36.0345L71.097 37.8344ZM74 44.5212H76.5C76.5 44.5101 76.4999 44.499 76.4998 44.4879L74 44.5212ZM74 57.0247L76.4998 57.059C76.4999 57.0476 76.5 57.0361 76.5 57.0247H74ZM71.0957 63.7091L69.361 61.9089L69.361 61.9089L71.0957 63.7091ZM64.2687 66.4014L64.3028 63.9016C64.2915 63.9015 64.2801 63.9014 64.2687 63.9014V66.4014ZM38.3225 66.4014V63.9014L38.31 63.9014L38.3225 66.4014ZM31.9808 60.3228C31.2817 59.1322 29.7498 58.7337 28.5591 59.4328C27.3685 60.132 26.9701 61.6639 27.6692 62.8545L31.9808 60.3228ZM31.8238 39.4167C30.0855 35.625 26.2682 33.2164 22.0919 33.2424L22.1231 38.2423C24.354 38.2284 26.3684 39.5147 27.2787 41.5004L31.8238 39.4167ZM22.1402 33.2426C16.3648 33.167 11.579 37.7469 11.5002 43.5253L16.4998 43.5935C16.5403 40.6211 19.0134 38.2021 22.0748 38.2422L22.1402 33.2426ZM11.5 43.5594V59.2008H16.5V43.5594H11.5ZM11.5003 59.2408C11.5926 65.0095 16.3743 69.5747 22.1403 69.499L22.0747 64.4995C19.0184 64.5396 16.5472 62.1283 16.4997 59.1608L11.5003 59.2408ZM22.088 69.4992C26.6269 69.5346 30.7012 66.6919 32.187 62.4078L27.463 60.7695C26.6883 63.0035 24.5474 64.5182 22.127 64.4993L22.088 69.4992ZM27.2709 41.4833C27.5646 42.1369 27.7157 42.8434 27.715 43.557L32.715 43.5617C32.7163 42.1388 32.4151 40.7322 31.8316 39.4338L27.2709 41.4833ZM27.715 43.5594V59.2008H32.715V43.5594H27.715ZM27.7151 59.2183C27.7189 59.7635 27.6343 60.306 27.4642 60.8253L32.2158 62.3816C32.5539 61.3492 32.7225 60.2693 32.7149 59.1833L27.7151 59.2183ZM31.785 41.5813C32.2493 40.6575 32.9166 39.8456 33.7401 39.2057L30.6724 35.2574C29.2639 36.3518 28.1173 37.7446 27.3175 39.336L31.785 41.5813ZM33.6729 39.2562C34.7936 38.4443 35.6192 37.2878 36.018 35.9605L31.2295 34.5217C31.1481 34.7926 30.9779 35.0344 30.7396 35.2069L33.6729 39.2562ZM36.0434 35.87L40.0971 20.2731L35.2579 19.0153L31.2041 34.6122L36.0434 35.87ZM40.0761 20.3491C40.6787 18.2986 42.8473 17.0694 44.9768 17.6399L46.2707 12.8103C41.5559 11.5471 36.6575 14.2481 35.2789 18.9394L40.0761 20.3491ZM45.0337 17.6545C46.0298 17.8964 46.8784 18.5229 47.3943 19.3839L51.6832 16.8138C50.474 14.7959 48.5009 13.3512 46.2138 12.7957L45.0337 17.6545ZM47.3943 19.3839C47.9096 20.2439 48.0528 21.2695 47.7951 22.2321L52.6249 23.5253C53.2336 21.252 52.893 18.8327 51.6832 16.8138L47.3943 19.3839ZM47.8015 22.2086L45.484 30.5381L50.301 31.8783L52.6185 23.5488L47.8015 22.2086ZM45.4737 30.5763C45.0253 32.2926 45.4143 34.1151 46.5176 35.5007L50.4291 32.3862C50.3033 32.2282 50.2625 32.0269 50.3113 31.8401L45.4737 30.5763ZM46.5176 35.5007C47.6194 36.8845 49.304 37.6714 51.0676 37.6404L50.9799 32.6412C50.7588 32.6451 50.5563 32.546 50.4291 32.3862L46.5176 35.5007ZM51.0238 37.6408H64.2687V32.6408H51.0238V37.6408ZM64.3028 37.6406C66.1942 37.6148 68.0138 38.3347 69.362 39.6343L72.832 36.0345C70.5299 33.8154 67.4369 32.5974 64.2347 32.6411L64.3028 37.6406ZM69.362 39.6343C70.7093 40.9331 71.4756 42.7036 71.5002 44.5545L76.4998 44.4879C76.4573 41.2947 75.1349 38.2544 72.832 36.0345L69.362 39.6343ZM71.5 44.5212V57.0247H76.5V44.5212H71.5ZM71.5002 56.9904C71.4749 58.8409 70.7083 60.6107 69.361 61.9089L72.8303 65.5094C75.1331 63.2905 76.456 60.2514 76.4998 57.059L71.5002 56.9904ZM69.361 61.9089C68.0129 63.2079 66.1938 63.9274 64.3028 63.9016L64.2347 68.9012C67.436 68.9448 70.5284 67.7275 72.8303 65.5094L69.361 61.9089ZM64.2687 63.9014H38.3225V68.9014H64.2687V63.9014ZM38.31 63.9014C35.6948 63.9145 33.284 62.5422 31.9808 60.3228L27.6692 62.8545C29.8829 66.6246 33.9538 68.9233 38.335 68.9014L38.31 63.9014Z" fill="black"/>
</svg>
