<svg width="90" height="90" viewBox="0 0 90 90" fill="none" xmlns="http://www.w3.org/2000/svg">
<path d="M45.0945 65.8622C44.7174 64.8762 43.9365 64.157 42.9914 64.0289C42.1913 63.9204 41.4079 63.7163 40.6629 63.4221C40.3286 63.2882 40.0152 63.1423 39.725 62.9858L40.2071 61.4214C40.5476 61.6022 40.8985 61.768 41.2576 61.9175L41.2726 61.9238L41.2877 61.9297C42.4405 62.383 43.5746 62.6128 44.6586 62.6128C45.7465 62.6128 46.5355 62.4393 47.1416 62.0669L47.1778 62.0446L47.2132 62.0205C48.1313 61.3935 48.6579 60.3156 48.6579 59.0633C48.6579 57.6733 48.0279 56.5196 46.9289 55.8962C46.3764 55.576 45.5913 55.2708 44.4604 54.9361C43.3006 54.587 42.3261 54.2167 41.5706 53.8373C41.0179 53.5399 40.539 53.0651 40.107 52.3865C39.7353 51.7811 39.5469 50.87 39.5469 49.6783C39.5469 48.2406 39.8871 47.0538 40.5871 46.05C41.2105 45.1702 42.0954 44.5731 43.2831 44.238C44.1639 43.9893 44.8512 43.241 45.1602 42.2744C45.5093 43.2544 46.2527 43.9827 47.1773 44.1581C47.9498 44.3047 48.6592 44.5378 49.2969 44.854L48.853 46.3872C47.6488 45.8119 46.4638 45.5211 45.3178 45.5211C41.5113 45.5211 41.3185 48.6466 41.3185 49.2732C41.3185 50.6313 41.9348 51.7702 43.0094 52.398L43.0395 52.4156L43.0702 52.4319C43.6127 52.7201 44.3831 52.998 45.4947 53.3064C46.6438 53.6155 47.6021 53.9695 48.3552 54.3622L48.3707 54.3703L48.3863 54.378C48.9455 54.655 49.4251 55.1175 49.8526 55.7918L49.8594 55.8025L49.8663 55.8132C50.24 56.3882 50.4295 57.2772 50.4295 58.4556C50.4295 59.8162 50.0984 60.9679 49.4174 61.9765C48.8269 62.8515 48.0021 63.4569 46.8956 63.828C46.0411 64.1143 45.3782 64.8916 45.0945 65.8622Z" fill="black"/>
<path d="M46.0582 69.9335H44.2242C43.814 69.9335 43.4815 69.5276 43.4815 69.0269V67.2067C43.4815 66.728 43.1762 66.3344 42.7864 66.2816C41.8578 66.1557 40.9594 65.9214 40.0913 65.5786C39.248 65.2408 38.5174 64.8397 37.8995 64.3753C37.6155 64.1619 37.5123 63.7283 37.6297 63.3473L38.8876 59.2649C39.057 58.7152 39.6038 58.505 40.0249 58.7891C40.5932 59.1725 41.2039 59.5002 41.857 59.7721C42.8301 60.1547 43.764 60.346 44.6586 60.346C45.4277 60.346 45.977 60.2448 46.3066 60.0422C46.6362 59.8171 46.801 59.4908 46.801 59.0632C46.801 58.5681 46.5813 58.1967 46.1418 57.9491C45.718 57.7016 45.0118 57.4315 44.0229 57.1389C42.7517 56.7563 41.6922 56.3512 40.8447 55.9236C39.9972 55.4735 39.2595 54.7533 38.6317 53.763C38.0039 52.7502 37.69 51.3887 37.69 49.6782C37.69 47.6977 38.1844 45.9985 39.1732 44.5806C40.0642 43.323 41.2947 42.4725 42.8649 42.0295C43.2183 41.9297 43.4815 41.5555 43.4815 41.1127V39.1069C43.4815 38.6061 43.814 38.2002 44.2242 38.2002H46.0582C46.4684 38.2002 46.801 38.6061 46.801 39.1069V40.9981C46.801 41.4613 47.0875 41.8471 47.4625 41.9183C48.8378 42.1792 50.0463 42.673 51.0879 43.3996C51.3832 43.6057 51.5007 44.0448 51.3873 44.4363L50.21 48.5024C50.054 49.0412 49.5339 49.2692 49.1159 49.0119C47.7896 48.1958 46.5236 47.7877 45.3178 47.7877C43.8895 47.7877 43.1754 48.2828 43.1754 49.2731C43.1754 49.7457 43.3873 50.1058 43.8111 50.3534C44.2349 50.5785 44.9333 50.826 45.9064 51.0961C47.162 51.4337 48.2214 51.8275 49.0846 52.2776C49.9478 52.7053 50.6934 53.4142 51.3212 54.4045C51.9647 55.3947 52.2864 56.7451 52.2864 58.4555C52.2864 60.346 51.8077 62.0002 50.8503 63.4181C50.0162 64.6541 48.8619 65.5192 47.3874 66.0136C47.0485 66.1272 46.801 66.4935 46.801 66.9225V69.0269C46.801 69.5276 46.4684 69.9335 46.0582 69.9335Z" fill="black"/>
<path fill-rule="evenodd" clip-rule="evenodd" d="M36.9688 11H53.0498C57.1684 11 54.9067 18.5435 53.2392 23.1448L51.3414 28.4216L51.0852 29.1333C52.8827 29.0269 54.6601 29.6345 56.1508 30.8651C61.727 37.0931 66.2523 44.5912 69.4725 52.9379C70.7274 56.0243 71.2252 59.4876 70.906 62.9112C70.5229 71.6374 64.7876 78.5912 57.6364 79H32.3822C25.2291 78.6033 19.4853 71.6567 19.094 62.9293C18.7748 59.5057 19.2726 56.0425 20.5275 52.956C23.7515 44.6009 28.2833 37.0963 33.8677 30.8651C35.3585 29.6345 37.1359 29.0269 38.9334 29.1333L38.6363 28.3128L36.7794 23.1448C35.1193 18.5435 32.8464 11 36.9688 11Z" stroke="black" stroke-width="5" stroke-linecap="round" stroke-linejoin="round"/>
<path d="M51.0856 31.633C52.4663 31.633 53.5856 30.5137 53.5856 29.133C53.5856 27.7523 52.4663 26.633 51.0856 26.633V31.633ZM38.9339 26.633C37.5532 26.633 36.4339 27.7523 36.4339 29.133C36.4339 30.5137 37.5532 31.633 38.9339 31.633V26.633ZM61.2788 26.6616C62.4176 25.8808 62.7078 24.3247 61.9271 23.186C61.1463 22.0472 59.5903 21.7569 58.4515 22.5377L61.2788 26.6616ZM51.3418 28.4212L51.9115 30.8555L51.9199 30.8535L51.3418 28.4212ZM38.6367 28.3124L39.2473 25.8881C39.2385 25.8859 39.2297 25.8837 39.2208 25.8816L38.6367 28.3124ZM31.5281 22.5109C30.3745 21.7522 28.8243 22.0722 28.0656 23.2258C27.3069 24.3794 27.6269 25.9296 28.7805 26.6883L31.5281 22.5109ZM51.0856 26.633H38.9339V31.633H51.0856V26.633ZM58.4515 22.5377C56.0368 24.1932 53.4407 25.3528 50.7638 25.989L51.9199 30.8535C55.2229 30.0685 58.3818 28.6477 61.2788 26.6616L58.4515 22.5377ZM50.7722 25.987C46.9615 26.8788 43.0489 26.8455 39.2473 25.8881L38.0262 30.7367C42.6007 31.8887 47.3227 31.9294 51.9115 30.8554L50.7722 25.987ZM39.2208 25.8816C36.5503 25.2399 33.9566 24.1082 31.5281 22.5109L28.7805 26.6883C31.6704 28.5891 34.7955 29.9606 38.0527 30.7432L39.2208 25.8816Z" fill="black"/>
</svg>
