<svg width="80" height="80" viewBox="0 0 80 80" fill="none" xmlns="http://www.w3.org/2000/svg">
<path fill-rule="evenodd" clip-rule="evenodd" d="M31.026 13.3335H49.4293C49.6205 13.3335 49.8105 13.3457 49.9994 13.3702C57.4905 13.8941 63.3073 20.1108 63.3327 27.6202V49.0502C63.3051 56.9572 56.8797 63.3483 48.9727 63.3335H31.026C23.1177 63.3483 16.6917 56.9551 16.666 49.0468V27.6202C16.6917 19.7119 23.1177 13.3188 31.026 13.3335Z" stroke="black" stroke-width="5" stroke-linecap="round" stroke-linejoin="round"/>
<path fill-rule="evenodd" clip-rule="evenodd" d="M32.3785 23.7636L27.4085 27.7636C26.9284 28.2211 26.6584 28.8565 26.6621 29.5196C26.6659 30.1828 26.9432 30.815 27.4285 31.267L30.6385 35.1303L44.0585 51.267C44.2822 51.5269 44.5818 51.7099 44.9151 51.7903L51.5818 53.3136C52.4633 53.3636 53.2308 52.7174 53.3318 51.8403L53.0218 45.3536C52.9989 45.0207 52.8651 44.705 52.6418 44.457L39.5318 28.6903L35.9985 24.447C35.1478 23.321 33.5811 23.0252 32.3785 23.7636Z" stroke="black" stroke-width="5" stroke-linecap="round" stroke-linejoin="round"/>
<path d="M63.332 30.2535C64.7127 30.2535 65.832 29.1342 65.832 27.7535C65.832 26.3727 64.7127 25.2535 63.332 25.2535V30.2535ZM49.9987 27.7535H47.4987C47.4987 29.1342 48.618 30.2535 49.9987 30.2535V27.7535ZM52.4987 13.3701C52.4987 11.9894 51.3794 10.8701 49.9987 10.8701C48.618 10.8701 47.4987 11.9894 47.4987 13.3701H52.4987ZM41.9949 29.1325C42.2319 27.7723 41.3213 26.4775 39.961 26.2405C38.6008 26.0036 37.306 26.9142 37.0691 28.2744L41.9949 29.1325ZM31.008 32.6476C29.6425 32.4436 28.3701 33.3852 28.1661 34.7508C27.9621 36.1163 28.9038 37.3887 30.2693 37.5927L31.008 32.6476ZM63.332 25.2535H49.9987V30.2535H63.332V25.2535ZM52.4987 27.7535V13.3701H47.4987V27.7535H52.4987ZM37.0691 28.2744C36.5707 31.1356 33.8805 33.0767 31.008 32.6476L30.2693 37.5927C35.8263 38.4228 41.0307 34.6678 41.9949 29.1325L37.0691 28.2744Z" fill="black"/>
</svg>
