<svg width="120" height="120" viewBox="0 0 120 120" fill="none" xmlns="http://www.w3.org/2000/svg">
<g filter="url(#filter0_d_134_4692)">
<rect x="10" y="6" width="100" height="100" rx="3" fill="white" fill-opacity="0.5" shape-rendering="crispEdges"/>
<path d="M70 39.3333C71.7681 39.3333 73.4638 40.0357 74.714 41.286C75.9643 42.5362 76.6667 44.2319 76.6667 46M70 26C75.3043 26 80.3914 28.1071 84.1421 31.8579C87.8929 35.6086 90 40.6957 90 46M36.6667 29.3333H50L56.6667 46L48.3333 51C51.9032 58.2384 57.7616 64.0968 65 67.6667L70 59.3333L86.6667 66V79.3333C86.6667 81.1014 85.9643 82.7971 84.714 84.0474C83.4638 85.2976 81.7681 86 80 86C66.9975 85.2098 54.7338 79.6883 45.5228 70.4772C36.3117 61.2662 30.7902 49.0025 30 36C30 34.2319 30.7024 32.5362 31.9526 31.286C33.2029 30.0357 34.8986 29.3333 36.6667 29.3333Z" stroke="black" stroke-width="5" stroke-linecap="round" stroke-linejoin="round"/>
</g>
<defs>
<filter id="filter0_d_134_4692" x="0" y="0" width="120" height="120" filterUnits="userSpaceOnUse" color-interpolation-filters="sRGB">
<feFlood flood-opacity="0" result="BackgroundImageFix"/>
<feColorMatrix in="SourceAlpha" type="matrix" values="0 0 0 0 0 0 0 0 0 0 0 0 0 0 0 0 0 0 127 0" result="hardAlpha"/>
<feOffset dy="4"/>
<feGaussianBlur stdDeviation="5"/>
<feComposite in2="hardAlpha" operator="out"/>
<feColorMatrix type="matrix" values="0 0 0 0 0.379167 0 0 0 0 0 0 0 0 0 0 0 0 0 0.1 0"/>
<feBlend mode="normal" in2="BackgroundImageFix" result="effect1_dropShadow_134_4692"/>
<feBlend mode="normal" in="SourceGraphic" in2="effect1_dropShadow_134_4692" result="shape"/>
</filter>
</defs>
</svg>
