<svg width="80" height="80" viewBox="0 0 80 80" fill="none" xmlns="http://www.w3.org/2000/svg">
<path fill-rule="evenodd" clip-rule="evenodd" d="M38.8336 54.4916C38.7631 57.905 35.9513 60.6219 32.5374 60.5751C29.1236 60.5283 26.3873 57.7355 26.4103 54.3214C26.4333 50.9073 29.2071 48.1516 32.6212 48.1509C34.2859 48.1678 35.8757 48.8454 37.0407 50.0345C38.2058 51.2237 38.8507 52.8269 38.8336 54.4916V54.4916Z" stroke="black" stroke-width="5" stroke-linecap="round" stroke-linejoin="round"/>
<path fill-rule="evenodd" clip-rule="evenodd" d="M68.4215 54.4916C68.351 57.905 65.5392 60.6219 62.1253 60.5751C58.7115 60.5283 55.9752 57.7355 55.9982 54.3214C56.0212 50.9073 58.795 48.1516 62.2091 48.1509C63.8738 48.1678 65.4636 48.8454 66.6286 50.0345C67.7937 51.2237 68.4386 52.8269 68.4215 54.4916V54.4916Z" stroke="black" stroke-width="5" stroke-linecap="round" stroke-linejoin="round"/>
<path d="M55.265 56.9919C56.6457 56.9919 57.765 55.8726 57.765 54.4919C57.765 53.1112 56.6457 51.9919 55.265 51.9919V56.9919ZM38.8328 51.9919C37.4521 51.9919 36.3328 53.1112 36.3328 54.4919C36.3328 55.8726 37.4521 56.9919 38.8328 56.9919V51.9919ZM52.7767 54.4919C52.7767 55.8726 53.896 56.9919 55.2767 56.9919C56.6574 56.9919 57.7767 55.8726 57.7767 54.4919H52.7767ZM57.7767 39.1301C57.7767 37.7494 56.6574 36.6301 55.2767 36.6301C53.896 36.6301 52.7767 37.7494 52.7767 39.1301H57.7767ZM55.2767 51.9919C53.896 51.9919 52.7767 53.1112 52.7767 54.4919C52.7767 55.8726 53.896 56.9919 55.2767 56.9919V51.9919ZM56.0088 56.9919C57.3895 56.9919 58.5088 55.8726 58.5088 54.4919C58.5088 53.1112 57.3895 51.9919 56.0088 51.9919V56.9919ZM68.3807 51.9925C67.0003 52.0216 65.9049 53.1644 65.9341 54.5448C65.9633 55.9252 67.106 57.0205 68.4864 56.9913L68.3807 51.9925ZM74.9989 47.6641L77.4985 47.619C77.4961 47.4868 77.4832 47.3551 77.46 47.225L74.9989 47.6641ZM75.9376 38.691C75.6951 37.3317 74.3966 36.4264 73.0373 36.6689C71.6781 36.9114 70.7728 38.2099 71.0153 39.5691L75.9376 38.691ZM55.265 22.9745C53.8843 22.9745 52.765 24.0937 52.765 25.4745C52.765 26.8552 53.8843 27.9745 55.265 27.9745V22.9745ZM65.6803 25.4745V27.9745C65.6855 27.9745 65.6908 27.9744 65.696 27.9744L65.6803 25.4745ZM70.4331 27.4778L68.6326 29.2122L70.4331 27.4778ZM72.2573 32.3023L69.7596 32.193C69.7516 32.3767 69.7639 32.5607 69.7962 32.7417L72.2573 32.3023ZM71.0153 39.5695C71.258 40.9287 72.5566 41.8338 73.9158 41.5911C75.2751 41.3484 76.1802 40.0498 75.9375 38.6906L71.0153 39.5695ZM57.765 25.4745C57.765 24.0938 56.6457 22.9745 55.265 22.9745C53.8843 22.9745 52.765 24.0938 52.765 25.4745H57.765ZM52.765 39.1302C52.765 40.5109 53.8843 41.6302 55.265 41.6302C56.6457 41.6302 57.765 40.5109 57.765 39.1302H52.765ZM52.765 25.4745C52.765 26.8552 53.8843 27.9745 55.265 27.9745C56.6457 27.9745 57.765 26.8552 57.765 25.4745H52.765ZM55.265 23.1412L52.7651 23.1248C52.765 23.1303 52.765 23.1357 52.765 23.1412H55.265ZM52.1617 20L52.1757 17.5H52.1617V20ZM24.2059 20V17.5L24.1943 17.5L24.2059 20ZM22.0035 20.9244L20.2275 19.1649V19.1649L22.0035 20.9244ZM21.0997 23.1354H23.5998L23.5997 23.1237L21.0997 23.1354ZM21.0997 51.3537L23.5997 51.3654V51.3537H21.0997ZM22.0035 53.5647L20.2275 55.3242L22.0035 53.5647ZM24.2059 54.489L24.1943 56.989H24.2059V54.489ZM26.3963 56.989C27.777 56.989 28.8963 55.8697 28.8963 54.489C28.8963 53.1083 27.777 51.989 26.3963 51.989V56.989ZM55.2709 36.6272C53.8902 36.6272 52.7709 37.7465 52.7709 39.1272C52.7709 40.5079 53.8902 41.6272 55.2709 41.6272V36.6272ZM73.4822 41.6272C74.8629 41.6272 75.9822 40.5079 75.9822 39.1272C75.9822 37.7465 74.8629 36.6272 73.4822 36.6272V41.6272ZM5 23.3332C3.61929 23.3332 2.5 24.4525 2.5 25.8332C2.5 27.214 3.61929 28.3332 5 28.3332V23.3332ZM14.129 28.3332C15.5097 28.3332 16.629 27.214 16.629 25.8332C16.629 24.4525 15.5097 23.3332 14.129 23.3332V28.3332ZM7.91662 32.0831C6.53591 32.0831 5.41662 33.2024 5.41662 34.5831C5.41662 35.9638 6.53591 37.0831 7.91662 37.0831V32.0831ZM13.7499 37.0831C15.1306 37.0831 16.2499 35.9638 16.2499 34.5831C16.2499 33.2024 15.1306 32.0831 13.7499 32.0831V37.0831ZM9.69576 40.833C8.31505 40.833 7.19576 41.9522 7.19576 43.333C7.19576 44.7137 8.31505 45.833 9.69576 45.833V40.833ZM13.7499 45.833C15.1306 45.833 16.2499 44.7137 16.2499 43.333C16.2499 41.9522 15.1306 40.833 13.7499 40.833V45.833ZM55.265 51.9919H38.8328V56.9919H55.265V51.9919ZM57.7767 54.4919V39.1301H52.7767V54.4919H57.7767ZM55.2767 56.9919H56.0088V51.9919H55.2767V56.9919ZM68.4864 56.9913C73.5597 56.8841 77.5901 52.6926 77.4985 47.619L72.4993 47.7092C72.5412 50.0279 70.6993 51.9434 68.3807 51.9925L68.4864 56.9913ZM77.46 47.225L75.9376 38.691L71.0153 39.5691L72.5377 48.1032L77.46 47.225ZM55.265 27.9745H65.6803V22.9745H55.265V27.9745ZM65.696 27.9744C66.8031 27.9674 67.8646 28.4148 68.6326 29.2122L72.2337 25.7434C70.5155 23.9597 68.141 22.9589 65.6645 22.9745L65.696 27.9744ZM68.6326 29.2122C69.4007 30.0095 69.808 31.087 69.7596 32.193L74.7549 32.4115C74.8631 29.9373 73.9518 27.527 72.2337 25.7434L68.6326 29.2122ZM69.7962 32.7417L71.0153 39.5695L75.9375 38.6906L74.7183 31.8628L69.7962 32.7417ZM52.765 25.4745V39.1302H57.765V25.4745H52.765ZM57.765 25.4745V23.1412H52.765V25.4745H57.765ZM57.765 23.1576C57.7748 21.666 57.1912 20.2316 56.1429 19.1704L52.5859 22.6844C52.7017 22.8016 52.7662 22.9601 52.7651 23.1248L57.765 23.1576ZM56.1429 19.1704C55.0945 18.1093 53.6674 17.5084 52.1757 17.5L52.1478 22.5C52.3125 22.5009 52.4701 22.5672 52.5859 22.6844L56.1429 19.1704ZM52.1617 17.5H24.2059V22.5H52.1617V17.5ZM24.1943 17.5C22.7036 17.507 21.2766 18.1058 20.2275 19.1649L23.7795 22.6838C23.8954 22.5669 24.053 22.5007 24.2176 22.5L24.1943 17.5ZM20.2275 19.1649C19.1783 20.2239 18.5928 21.6563 18.5998 23.1471L23.5997 23.1237C23.5989 22.959 23.6636 22.8008 23.7795 22.6838L20.2275 19.1649ZM18.5997 23.1354V51.3537H23.5997V23.1354H18.5997ZM18.5998 51.342C18.5928 52.8327 19.1783 54.2651 20.2275 55.3242L23.7795 51.8052C23.6636 51.6882 23.5989 51.53 23.5997 51.3654L18.5998 51.342ZM20.2275 55.3242C21.2766 56.3832 22.7036 56.9821 24.1943 56.989L24.2176 51.9891C24.053 51.9883 23.8954 51.9222 23.7795 51.8052L20.2275 55.3242ZM24.2059 56.989H26.3963V51.989H24.2059V56.989ZM55.2709 41.6272H73.4822V36.6272H55.2709V41.6272ZM5 28.3332H14.129V23.3332H5V28.3332ZM7.91662 37.0831H13.7499V32.0831H7.91662V37.0831ZM9.69576 45.833H13.7499V40.833H9.69576V45.833Z" fill="black"/>
</svg>
