<svg width="80" height="80" viewBox="0 0 80 80" fill="none" xmlns="http://www.w3.org/2000/svg">
<path d="M29.9997 40.0001L36.6663 46.6667L49.9997 33.3334M16.6663 24.0001C16.6663 22.0552 17.4389 20.1899 18.8141 18.8146C20.1894 17.4394 22.0547 16.6667 23.9996 16.6667H27.3329C29.2692 16.6656 31.1266 15.8987 32.4996 14.5334L34.8329 12.2001C35.5144 11.5147 36.3247 10.9709 37.2171 10.5998C38.1095 10.2286 39.0664 10.0376 40.0329 10.0376C40.9994 10.0376 41.9564 10.2286 42.8488 10.5998C43.7412 10.9709 44.5514 11.5147 45.2329 12.2001L47.5663 14.5334C48.9396 15.9001 50.7996 16.6667 52.7329 16.6667H56.0663C58.0112 16.6667 59.8764 17.4394 61.2517 18.8146C62.627 20.1899 63.3996 22.0552 63.3996 24.0001V27.3334C63.3996 29.2667 64.1663 31.1267 65.5329 32.5001L67.8663 34.8334C68.5516 35.5149 69.0954 36.3251 69.4666 37.2175C69.8377 38.1099 70.0287 39.0669 70.0287 40.0334C70.0287 40.9999 69.8377 41.9569 69.4666 42.8493C69.0954 43.7417 68.5516 44.5519 67.8663 45.2334L65.5329 47.5667C64.1676 48.9398 63.4007 50.7971 63.3996 52.7334V56.0667C63.3996 58.0117 62.627 59.8769 61.2517 61.2522C59.8764 62.6275 58.0112 63.4001 56.0663 63.4001H52.7329C50.7966 63.4012 48.9393 64.1681 47.5663 65.5334L45.2329 67.8667C44.5514 68.5521 43.7412 69.0959 42.8488 69.467C41.9564 69.8382 40.9994 70.0292 40.0329 70.0292C39.0664 70.0292 38.1095 69.8382 37.2171 69.467C36.3247 69.0959 35.5144 68.5521 34.8329 67.8667L32.4996 65.5334C31.1266 64.1681 29.2692 63.4012 27.3329 63.4001H23.9996C22.0547 63.4001 20.1894 62.6275 18.8141 61.2522C17.4389 59.8769 16.6663 58.0117 16.6663 56.0667V52.7334C16.6651 50.7971 15.8983 48.9398 14.5329 47.5667L12.1996 45.2334C11.5143 44.5519 10.9704 43.7417 10.5993 42.8493C10.2282 41.9569 10.0371 40.9999 10.0371 40.0334C10.0371 39.0669 10.2282 38.1099 10.5993 37.2175C10.9704 36.3251 11.5143 35.5149 12.1996 34.8334L14.5329 32.5001C15.8983 31.127 16.6651 29.2697 16.6663 27.3334V24.0001Z" stroke="white" stroke-width="5" stroke-linecap="round" stroke-linejoin="round"/>
</svg>
