<svg width="90" height="90" viewBox="0 0 90 90" fill="none" xmlns="http://www.w3.org/2000/svg">
<path d="M33.75 52.5002C34.4299 54.2714 35.544 55.8433 36.99 57.0715C41.5885 60.9313 48.2807 60.9801 52.935 57.1877C54.4009 55.9813 55.5407 54.4263 56.25 52.6652" stroke="white" stroke-width="5" stroke-linecap="round" stroke-linejoin="round"/>
<path fill-rule="evenodd" clip-rule="evenodd" d="M71.25 45C71.25 59.4975 59.4975 71.25 45 71.25C30.5025 71.25 18.75 59.4975 18.75 45C18.75 30.5025 30.5025 18.75 45 18.75C51.9619 18.75 58.6387 21.5156 63.5616 26.4384C68.4844 31.3613 71.25 38.0381 71.25 45Z" stroke="white" stroke-width="5" stroke-linecap="round" stroke-linejoin="round"/>
<path d="M33.75 41.25V37.5" stroke="white" stroke-width="5" stroke-linecap="round"/>
<path d="M56.25 41.25V37.5" stroke="white" stroke-width="5" stroke-linecap="round"/>
</svg>
