<svg width="90" height="90" viewBox="0 0 90 90" fill="none" xmlns="http://www.w3.org/2000/svg">
<path d="M65.1111 42H23.8889C20.6365 42 18 44.6049 18 47.8182V68.1818C18 71.3951 20.6365 74 23.8889 74H65.1111C68.3635 74 71 71.3951 71 68.1818V47.8182C71 44.6049 68.3635 42 65.1111 42Z" stroke="white" stroke-width="5" stroke-linecap="round" stroke-linejoin="round"/>
<path d="M30 42V30.4444C30 26.6135 31.5277 22.9395 34.247 20.2307C36.9662 17.5218 40.6544 16 44.5 16C48.3456 16 52.0338 17.5218 54.753 20.2307C57.4723 22.9395 59 26.6135 59 30.4444V42" stroke="white" stroke-width="5" stroke-linecap="round" stroke-linejoin="round"/>
</svg>
