<svg width="80" height="80" viewBox="0 0 80 80" fill="none" xmlns="http://www.w3.org/2000/svg">
<path d="M70 40L40 10L10 40H16.6667V63.3333C16.6667 65.1014 17.369 66.7971 18.6193 68.0474C19.8695 69.2976 21.5652 70 23.3333 70H43.3333M30 70V50C30 48.2319 30.7024 46.5362 31.9526 45.286C33.2029 44.0357 34.8986 43.3333 36.6667 43.3333H43.3333C44.6333 43.3333 45.8467 43.7067 46.87 44.3467M63.3334 71.6667L71.7267 63.0667C72.7666 61.9861 73.3475 60.5447 73.3475 59.045C73.3475 57.5453 72.7666 56.104 71.7267 55.0233C71.2207 54.4969 70.6135 54.078 69.9416 53.7919C69.2697 53.5057 68.547 53.3583 67.8167 53.3583C67.0864 53.3583 66.3637 53.5057 65.6918 53.7919C65.0199 54.078 64.4128 54.4969 63.9067 55.0233L63.3467 55.5967L62.7867 55.0233C62.2807 54.4969 61.6735 54.078 61.0016 53.7919C60.3297 53.5057 59.607 53.3583 58.8767 53.3583C58.1464 53.3583 57.4237 53.5057 56.7518 53.7919C56.0799 54.078 55.4728 54.4969 54.9667 55.0233C53.9278 56.1038 53.3476 57.5445 53.3476 59.0433C53.3476 60.5422 53.9278 61.9829 54.9667 63.0633L63.3334 71.6967V71.6667Z" stroke="white" stroke-width="5" stroke-linecap="round" stroke-linejoin="round"/>
</svg>
