<svg width="80" height="80" viewBox="0 0 80 80" fill="none" xmlns="http://www.w3.org/2000/svg">
<path fill-rule="evenodd" clip-rule="evenodd" d="M19.5441 21.2063C22.4774 18.1163 23.5141 17.2497 24.7641 16.8463C25.6292 16.6197 26.5364 16.6071 27.4074 16.8097C28.5541 17.143 28.8574 17.3963 32.6174 21.143C35.9208 24.433 36.2508 24.7897 36.5674 25.433C37.173 26.5623 37.2675 27.8963 36.8274 29.0997C36.4941 30.0163 36.0208 30.623 34.0174 32.633L32.7108 33.943C32.3676 34.2917 32.287 34.8213 32.5108 35.2563C35.4139 40.2092 39.5327 44.3395 44.4775 47.2563C45.0466 47.5611 45.7475 47.4627 46.2108 47.013L47.4675 45.7763C48.2442 44.9802 49.0667 44.23 49.9308 43.5297C51.288 42.6964 52.979 42.622 54.4041 43.333C55.1008 43.6663 55.3308 43.873 58.7374 47.273C62.2508 50.7763 62.3508 50.8863 62.7375 51.6897C63.4651 53.0195 63.4575 54.6301 62.7175 55.953C62.3408 56.6997 62.1108 56.9697 60.1341 58.9897C58.9408 60.2097 57.8174 61.323 57.6374 61.4863C56.0068 62.8365 53.9146 63.4988 51.8041 63.333C47.9426 62.9811 44.205 61.7875 40.8541 59.8363C33.4312 55.9036 27.1121 50.1736 22.4741 43.1697C21.4639 41.7039 20.5658 40.164 19.7874 38.563C17.6994 34.9842 16.6211 30.9061 16.6674 26.763C16.8269 24.5955 17.8663 22.5877 19.5441 21.2063Z" stroke="white" stroke-width="5" stroke-linecap="round" stroke-linejoin="round"/>
</svg>
