<svg width="90" height="90" viewBox="0 0 90 90" fill="none" xmlns="http://www.w3.org/2000/svg">
<path d="M33.75 25C35.1307 25 36.25 23.8807 36.25 22.5C36.25 21.1193 35.1307 20 33.75 20V25ZM56.25 20C54.8693 20 53.75 21.1193 53.75 22.5C53.75 23.8807 54.8693 25 56.25 25V20ZM33.75 20C32.3693 20 31.25 21.1193 31.25 22.5C31.25 23.8807 32.3693 25 33.75 25V20ZM56.25 25C57.6307 25 58.75 23.8807 58.75 22.5C58.75 21.1193 57.6307 20 56.25 20V25ZM36.25 22.5C36.25 21.1193 35.1307 20 33.75 20C32.3693 20 31.25 21.1193 31.25 22.5L36.25 22.5ZM31.25 26.25C31.25 27.6307 32.3693 28.75 33.75 28.75C35.1307 28.75 36.25 27.6307 36.25 26.25H31.25ZM31.25 22.5C31.25 23.8807 32.3693 25 33.75 25C35.1307 25 36.25 23.8807 36.25 22.5L31.25 22.5ZM36.25 15C36.25 13.6193 35.1307 12.5 33.75 12.5C32.3693 12.5 31.25 13.6193 31.25 15H36.25ZM58.75 22.5C58.75 21.1193 57.6307 20 56.25 20C54.8693 20 53.75 21.1193 53.75 22.5H58.75ZM53.75 26.25C53.75 27.6307 54.8693 28.75 56.25 28.75C57.6307 28.75 58.75 27.6307 58.75 26.25H53.75ZM53.75 22.5C53.75 23.8807 54.8693 25 56.25 25C57.6307 25 58.75 23.8807 58.75 22.5H53.75ZM58.75 15C58.75 13.6193 57.6307 12.5 56.25 12.5C54.8693 12.5 53.75 13.6193 53.75 15L58.75 15ZM33.75 20C24.085 20 16.25 27.835 16.25 37.5H21.25C21.25 30.5964 26.8464 25 33.75 25V20ZM16.25 37.5V60H21.25V37.5H16.25ZM16.25 60C16.25 69.665 24.085 77.5 33.75 77.5L33.75 72.5C26.8464 72.5 21.25 66.9036 21.25 60H16.25ZM33.75 77.5H56.25V72.5H33.75L33.75 77.5ZM56.25 77.5C65.915 77.5 73.75 69.665 73.75 60H68.75C68.75 66.9036 63.1536 72.5 56.25 72.5V77.5ZM73.75 60V37.5H68.75V60H73.75ZM73.75 37.5C73.75 27.835 65.915 20 56.25 20V25C63.1536 25 68.75 30.5964 68.75 37.5H73.75ZM33.75 25H56.25V20L33.75 20V25ZM31.25 22.5V26.25H36.25V22.5L31.25 22.5ZM36.25 22.5V15H31.25V22.5L36.25 22.5ZM53.75 22.5V26.25H58.75V22.5H53.75ZM58.75 22.5V15L53.75 15V22.5H58.75Z" fill="white"/>
<path d="M30 48.75L37.5 60L60 41.25" stroke="white" stroke-width="5" stroke-linecap="round" stroke-linejoin="round"/>
</svg>
